<svg xmlns="http://www.w3.org/2000/svg" viewBox="0 0 800 500" width="800" height="500">
  <defs>
    <!-- Small white dot pattern -->
    <pattern id="d" x="0" y="0" width="9" height="9" patternUnits="userSpaceOnUse">
      <circle cx="2.5" cy="2.5" r="1.8" fill="white" fill-opacity="0.55"/>
    </pattern>
    <!-- USA contiguous states approximate outline -->
    <clipPath id="usa">
      <path d="
        M 145 62 L 155 52 L 168 46 L 182 42 L 196 38 L 212 34 L 230 30
        L 248 27 L 266 24 L 285 22 L 304 20 L 323 19 L 342 18 L 361 18
        L 380 18 L 399 17 L 418 17 L 437 17 L 456 17 L 475 17 L 494 18
        L 513 18 L 532 19 L 551 20 L 570 21 L 588 23 L 606 25 L 622 28
        L 637 32 L 650 37 L 661 42 L 670 48 L 677 55 L 682 62 L 685 70
        L 686 78 L 685 86 L 682 94 L 678 102 L 673 110 L 667 116 L 660 121
        L 653 125 L 646 129 L 638 132 L 630 135 L 622 138 L 613 141
        L 604 143 L 595 145 L 586 147 L 577 149 L 568 151 L 558 152
        L 547 153 L 536 154 L 525 155 L 514 156 L 503 157 L 492 158
        L 481 159 L 470 160 L 459 161 L 448 162 L 437 163 L 426 164
        L 415 165 L 404 166 L 393 167 L 382 168 L 371 169 L 360 170
        L 349 171 L 338 172 L 327 173 L 316 174 L 305 175 L 294 176
        L 283 177 L 272 178 L 261 179 L 250 180 L 240 182 L 231 184
        L 222 187 L 214 190 L 207 193 L 200 197 L 194 201 L 189 205
        L 185 210 L 182 215 L 180 220 L 178 226 L 177 232 L 177 237
        L 178 242 L 180 247 L 182 252 L 183 257 L 182 262 L 180 266
        L 177 270 L 173 273 L 169 276 L 164 278 L 158 280 L 152 281
        L 146 282 L 140 282 L 135 282 L 130 283 L 126 284 L 123 286
        L 121 289 L 120 292 L 121 295 L 123 298 L 125 301 L 127 304
        L 129 307 L 130 311 L 130 315 L 128 318 L 125 321 L 122 323
        L 119 325 L 116 328 L 114 331 L 113 335 L 113 339 L 114 343
        L 116 346 L 119 349 L 122 351 L 126 353 L 130 355 L 134 358
        L 137 361 L 140 364 L 142 368 L 143 372 L 143 377 L 142 382
        L 140 387 L 137 391 L 133 394 L 130 397 L 127 400 L 125 403
        L 124 406 L 124 410 L 125 414 L 127 418 L 131 422 L 137 426
        L 143 430 L 150 433 L 156 435 L 161 436 L 166 436 L 171 435
        L 176 433 L 181 430 L 186 427 L 191 424 L 196 421 L 202 419
        L 208 418 L 214 418 L 220 419 L 225 421 L 230 424 L 234 428
        L 238 432 L 241 437 L 244 442 L 246 447 L 247 452 L 248 457
        L 248 462 L 248 466 L 249 469 L 252 472 L 256 474 L 261 475
        L 267 476 L 273 476 L 279 475 L 285 474 L 291 473 L 297 472
        L 304 471 L 312 471 L 320 471 L 328 470 L 336 470 L 344 469
        L 352 469 L 360 469 L 368 470 L 375 471 L 381 472 L 386 473
        L 392 474 L 398 476 L 404 477 L 410 479 L 416 480 L 422 481
        L 428 481 L 434 481 L 440 480 L 446 479 L 452 478 L 458 477
        L 464 476 L 470 476 L 476 476 L 482 476 L 488 476 L 494 477
        L 500 477 L 506 478 L 512 479 L 518 480 L 524 481 L 530 482
        L 536 483 L 542 484 L 548 484 L 554 484 L 560 484 L 566 483
        L 572 482 L 578 482 L 584 482 L 590 482 L 597 483 L 604 484
        L 610 485 L 615 485 L 620 485 L 625 484 L 629 482 L 632 480
        L 635 477 L 637 474 L 638 471 L 637 468 L 636 465 L 636 462
        L 638 460 L 641 458 L 645 457 L 650 457 L 655 457 L 660 458
        L 665 460 L 670 462 L 675 464 L 680 466 L 685 468 L 690 470
        L 695 471 L 700 471 L 705 470 L 709 468 L 712 465 L 713 462
        L 713 459 L 711 456 L 709 454 L 709 452 L 711 451 L 714 450
        L 718 450 L 722 451 L 726 452 L 730 454 L 734 456 L 738 457
        L 742 457 L 745 455 L 746 452 L 744 449 L 741 446 L 739 443
        L 739 441 L 741 439 L 744 438 L 748 438 L 752 439 L 755 441
        L 758 443 L 760 446 L 761 449 L 761 452 L 760 455 L 758 458
        L 755 460 L 751 462 L 747 463 L 743 463 L 742 466 L 743 470
        L 745 473 L 748 475 L 750 477 L 752 479 L 754 481 L 757 483
        L 760 484 L 764 484 L 768 483 L 772 481 L 776 478 L 780 475
        L 783 471 L 785 467 L 786 463 L 785 459 L 783 455 L 780 451
        L 777 447 L 775 443 L 775 440 L 777 438 L 781 437 L 786 437
        L 791 438 L 796 440 L 800 443 
        L 800 500 L 0 500 L 0 0 L 145 0 Z
      "/>
    </clipPath>
  </defs>
  
  <!-- Fill: dots only within USA shape -->
  <rect width="800" height="500" fill="url(#d)" clip-path="url(#usa)"/>
</svg>
